<svg
        class="test-logo " 
        viewBox="0 0 24 24"
        xmlns="http://www.w3.org/2000/svg"
        xmlns:xlink="http://www.w3.org/1999/xlink"
      >
        <rect
          width="24"
          height="24"
          stroke="none"
          fill="#000000"
          opacity="0"
        />

        <g transform="matrix(0.31 0 0 0.31 12 12)">
          <g transform="matrix(1 0 0 1 -0.04 0.01)" id="Layer_1">
            <linearGradient
              id="SVGID_SVGID_1__1"
              gradientUnits="userSpaceOnUse"
              gradientTransform="matrix(1 0 0 1 0 0)"
              x1="32"
              y1="6.872"
              x2="32"
              y2="50.533"
            >
              <stop
                offset="0%"
                style="stop-color: rgb(26, 109, 255); stop-opacity: 1"
              />
              <stop
                offset="100%"
                style="stop-color: rgb(200, 34, 255); stop-opacity: 1"
              />
            </linearGradient>
            <path
              style="
                stroke: none;
                stroke-width: 1;
                stroke-dasharray: none;
                stroke-linecap: butt;
                stroke-dashoffset: 0;
                stroke-linejoin: miter;
                stroke-miterlimit: 4;
                fill: url(#SVGID_SVGID_1__1);
                fill-rule: nonzero;
                opacity: 1;
              "
              transform=" translate(-31.96, -32.01)"
              d="M 55.9 14.2 L 32.2 6.1 C 32 6 31.8 6 31.6 6.1 L 8.1 14.3 C 7.699999999999999 14.5 7.3999999999999995 14.9 7.3999999999999995 15.4 L 11.1 46.2 C 11.1 46.5 11.299999999999999 46.800000000000004 11.6 47 L 31.4 57.9 C 31.5 58 31.7 58 31.9 58 C 32.1 58 32.199999999999996 58 32.4 57.9 L 52.3 46.9 C 52.599999999999994 46.699999999999996 52.8 46.5 52.8 46.1 L 56.5 15.3 C 56.6 14.8 56.4 14.3 55.9 14.2 z M 51 45.3 L 32 55.8 L 13 45.5 L 9.5 16 L 31.9 8.1 L 54.5 15.899999999999999 L 51 45.3 z"
              stroke-linecap="round"
            />
          </g>
          <g transform="matrix(1 0 0 1 -0.04 -0.19)" id="Layer_1">
            <linearGradient
              id="SVGID_SVGID_2__2"
              gradientUnits="userSpaceOnUse"
              gradientTransform="matrix(1 0 0 1 0 0)"
              x1="31.999"
              y1="6.872"
              x2="31.999"
              y2="50.533"
            >
              <stop
                offset="0%"
                style="stop-color: rgb(26, 109, 255); stop-opacity: 1"
              />
              <stop
                offset="100%"
                style="stop-color: rgb(200, 34, 255); stop-opacity: 1"
              />
            </linearGradient>
            <path
              style="
                stroke: none;
                stroke-width: 1;
                stroke-dasharray: none;
                stroke-linecap: butt;
                stroke-dashoffset: 0;
                stroke-linejoin: miter;
                stroke-miterlimit: 4;
                fill: url(#SVGID_SVGID_2__2);
                fill-rule: nonzero;
                opacity: 1;
              "
              transform=" translate(-31.96, -31.81)"
              d="M 12.4 17 C 12 17.2 11.700000000000001 17.6 11.700000000000001 18.1 L 14.8 43.7 C 14.8 44 15 44.300000000000004 15.3 44.5 L 31.400000000000002 53.3 C 31.500000000000004 53.4 31.700000000000003 53.4 31.900000000000002 53.4 C 32.1 53.4 32.2 53.4 32.400000000000006 53.3 L 48.60000000000001 44.3 C 48.900000000000006 44.099999999999994 49.10000000000001 43.9 49.10000000000001 43.5 L 52.2 18 C 52.300000000000004 17.5 52 17.1 51.5 16.9 L 32.2 10.299999999999999 C 32 10.2 31.800000000000004 10.2 31.500000000000004 10.299999999999999 L 12.4 17 z M 31.9 12.3 L 50.099999999999994 18.6 L 47.199999999999996 42.900000000000006 L 31.899999999999995 51.400000000000006 L 16.8 43 L 13.9 18.7 L 31.9 12.3 z"
              stroke-linecap="round"
            />
          </g>
          <g transform="matrix(1 0 0 1 0.35 -4.4)" id="Layer_1">
            <linearGradient
              id="SVGID_SVGID_3__3"
              gradientUnits="userSpaceOnUse"
              gradientTransform="matrix(1 0 0 1 0 0)"
              x1="32.255"
              y1="14.915"
              x2="32.255"
              y2="40.065"
            >
              <stop
                offset="0%"
                style="stop-color: rgb(109, 199, 255); stop-opacity: 1"
              />
              <stop
                offset="100%"
                style="stop-color: rgb(230, 171, 255); stop-opacity: 1"
              />
            </linearGradient>
            <path
              style="
                stroke: none;
                stroke-width: 1;
                stroke-dasharray: none;
                stroke-linecap: butt;
                stroke-dashoffset: 0;
                stroke-linejoin: miter;
                stroke-miterlimit: 4;
                fill: url(#SVGID_SVGID_3__3);
                fill-rule: nonzero;
                opacity: 1;
              "
              transform=" translate(-32.35, -27.6)"
              d="M 31.9 14.2 L 31.9 14.2 L 31.9 14.2 L 31.9 14.2 L 31.9 14.2 L 20 41 L 24.4 41 L 26.799999999999997 35 L 37.699999999999996 35 L 40.3 41 L 44.699999999999996 41 L 31.9 14.2 z M 32 22.4 L 36.1 31 L 28.400000000000002 31 L 32 22.4 z"
              stroke-linecap="round"
            />
          </g>
        </g>
      </svg>