 <svg
      
        viewBox="0 0 24 24"
        xmlns="http://www.w3.org/2000/svg"
        xmlns:xlink="http://www.w3.org/1999/xlink"
      >
        <rect
          width="24"
          height="24"
          stroke="none"
          fill="#000000"
          opacity="0"
        />

        <g transform="matrix(0.31 0 0 0.31 12 12)">
          <g transform="matrix(1 0 0 1 0.02 1)">
            <path
              style="
                stroke: none;
                stroke-width: 1;
                stroke-dasharray: none;
                stroke-linecap: butt;
                stroke-dashoffset: 0;
                stroke-linejoin: miter;
                stroke-miterlimit: 4;
                fill: rgb(123, 190, 235);
                fill-rule: nonzero;
                opacity: 1;
              "
              transform=" translate(-32.02, -33)"
              d="M 5.015 7.244 L 10.481 52.49 C 10.675 54.093 11.818 55.425000000000004 13.381 55.869 L 30.916 60.846000000000004 C 31.625 61.047000000000004 32.376 61.05200000000001 33.088 60.859 L 51.53 55.863 C 53.144 55.426 54.319 54.046 54.485 52.391999999999996 L 59.034 7.204999999999998 C 59.153 6.024 58.22 5 57.025 5 L 7.019 5 C 5.809 5 4.87 6.051 5.015 7.244 z"
              stroke-linecap="round"
            />
          </g>
          <g transform="matrix(1 0 0 1 13.52 1)">
            <path
              style="
                stroke: none;
                stroke-width: 1;
                stroke-dasharray: none;
                stroke-linecap: butt;
                stroke-dashoffset: 0;
                stroke-linejoin: miter;
                stroke-miterlimit: 4;
                fill: rgb(172, 227, 255);
                fill-rule: nonzero;
                opacity: 1;
              "
              transform=" translate(-45.52, -33)"
              d="M 57.025 5 L 32 5 L 32 61 C 32.366 61.002 32.732 60.955 33.088 60.859 L 51.53 55.863 C 53.144 55.426 54.319 54.046 54.485 52.391999999999996 L 59.034 7.204999999999998 C 59.153 6.024 58.22 5 57.025 5 z"
              stroke-linecap="round"
            />
          </g>
          <g transform="matrix(1 0 0 1 0.02 1)">
            <path
              style="
                stroke: none;
                stroke-width: 1;
                stroke-dasharray: none;
                stroke-linecap: butt;
                stroke-dashoffset: 0;
                stroke-linejoin: miter;
                stroke-miterlimit: 4;
                fill: rgb(141, 108, 159);
                fill-rule: nonzero;
                opacity: 1;
              "
              transform=" translate(-32.02, -33)"
              d="M 32.025 62 C 31.56 62 31.093999999999998 61.936 30.642 61.808 L 13.107 56.831 C 11.152 56.276 9.731 54.620000000000005 9.486999999999998 52.61 L 4.021 7.364 C 3.9179999999999997 6.514 4.186 5.659 4.754 5.0169999999999995 C 5.328 4.371 6.153 4 7.02 4 L 57.025999999999996 4 C 57.879999999999995 4 58.69799999999999 4.362 59.269999999999996 4.995 C 59.836999999999996 5.623 60.114999999999995 6.465 60.029999999999994 7.306 L 55.48 52.493 C 55.272 54.545 53.79 56.287 51.79 56.827 L 33.349999999999994 61.823 C 32.916 61.941 32.471 62 32.025 62 z M 7.02 6 C 6.721 6 6.448 6.122 6.252 6.344 C 6.06 6.561 5.973 6.838 6.008 7.124 L 6.008 7.124 L 11.474 52.370000000000005 C 11.620000000000001 53.577000000000005 12.476 54.57300000000001 13.654 54.907000000000004 L 31.19 59.884 C 31.725 60.035000000000004 32.29 60.039 32.827 59.894 L 51.268 54.897999999999996 C 52.473 54.571999999999996 53.367000000000004 53.525 53.491 52.293 L 58.04 7.104999999999997 C 58.068 6.8219999999999965 57.978 6.548999999999997 57.787 6.335999999999997 C 57.59 6.119 57.319 6 57.025 6 L 7.02 6 z"
              stroke-linecap="round"
            />
          </g>
          <g transform="matrix(1 0 0 1 0 0.5)">
            <path
              style="
                stroke: none;
                stroke-width: 1;
                stroke-dasharray: none;
                stroke-linecap: butt;
                stroke-dashoffset: 0;
                stroke-linejoin: miter;
                stroke-miterlimit: 4;
                fill: rgb(141, 108, 159);
                fill-rule: nonzero;
                opacity: 1;
              "
              transform=" translate(-32, -32.5)"
              d="M 7 12 C 6.447 12 6 11.553 6 11 L 6 9 C 6 8.447 6.447 8 7 8 C 7.553 8 8 8.447 8 9 L 8 11 C 8 11.553 7.553 12 7 12 z M 12 12 C 11.447 12 11 11.553 11 11 L 11 9 C 11 8.447 11.447 8 12 8 C 12.553 8 13 8.447 13 9 L 13 11 C 13 11.553 12.553 12 12 12 z M 17 12 C 16.447 12 16 11.553 16 11 L 16 9 C 16 8.447 16.447 8 17 8 C 17.553 8 18 8.447 18 9 L 18 11 C 18 11.553 17.553 12 17 12 z M 22 12 C 21.447 12 21 11.553 21 11 L 21 9 C 21 8.447 21.447 8 22 8 C 22.553 8 23 8.447 23 9 L 23 11 C 23 11.553 22.553 12 22 12 z M 27 12 C 26.447 12 26 11.553 26 11 L 26 9 C 26 8.447 26.447 8 27 8 C 27.553 8 28 8.447 28 9 L 28 11 C 28 11.553 27.553 12 27 12 z M 32 12 C 31.447 12 31 11.553 31 11 L 31 9 C 31 8.447 31.447 8 32 8 C 32.553 8 33 8.447 33 9 L 33 11 C 33 11.553 32.553 12 32 12 z M 37 12 C 36.447 12 36 11.553 36 11 L 36 9 C 36 8.447 36.447 8 37 8 C 37.553 8 38 8.447 38 9 L 38 11 C 38 11.553 37.553 12 37 12 z M 42 12 C 41.447 12 41 11.553 41 11 L 41 9 C 41 8.447 41.447 8 42 8 C 42.553 8 43 8.447 43 9 L 43 11 C 43 11.553 42.553 12 42 12 z M 47 12 C 46.447 12 46 11.553 46 11 L 46 9 C 46 8.447 46.447 8 47 8 C 47.553 8 48 8.447 48 9 L 48 11 C 48 11.553 47.553 12 47 12 z M 52 12 C 51.447 12 51 11.553 51 11 L 51 9 C 51 8.447 51.447 8 52 8 C 52.553 8 53 8.447 53 9 L 53 11 C 53 11.553 52.553 12 52 12 z M 57 12 C 56.447 12 56 11.553 56 11 L 56 9 C 56 8.447 56.447 8 57 8 C 57.553 8 58 8.447 58 9 L 58 11 C 58 11.553 57.553 12 57 12 z M 39.999 54.806 C 39.559000000000005 54.806 39.155 54.513 39.035000000000004 54.068 C 38.89 53.535 39.205000000000005 52.986 39.73800000000001 52.841 L 41.73800000000001 52.299 C 42.272000000000006 52.153 42.821000000000005 52.469 42.965 53.002 C 43.11000000000001 53.535000000000004 42.795 54.084 42.262 54.229 L 40.262 54.771 C 40.174 54.795 40.086 54.806 39.999 54.806 z M 32.024 57.003 L 26.726 55.499 C 26.195 55.349000000000004 25.886 54.795 26.038 54.264 C 26.188 53.733000000000004 26.739 53.422000000000004 27.273 53.576 L 32.036 54.928 L 35.738 53.925999999999995 C 36.272 53.77799999999999 36.821 54.096 36.964999999999996 54.629 C 37.11 55.162 36.794999999999995 55.711999999999996 36.26199999999999 55.855999999999995 L 32.024 57.003 z"
              stroke-linecap="round"
            />
          </g>
          <g transform="matrix(1 0 0 1 1 5.5)">
            <path
              style="
                stroke: none;
                stroke-width: 1;
                stroke-dasharray: none;
                stroke-linecap: butt;
                stroke-dashoffset: 0;
                stroke-linejoin: miter;
                stroke-miterlimit: 4;
                fill: rgb(255, 248, 248);
                fill-rule: nonzero;
                opacity: 1;
              "
              transform=" translate(-33, -37.5)"
              d="M 15.5 30 L 16.738 32.262 L 19 33.5 L 16.738 34.738 L 15.5 37 L 14.262 34.738 L 12 33.5 L 14.262 32.262 L 15.5 30 z M 47.502 47 L 48.378 48.61 L 50 49.502 L 48.378 50.378 L 47.502 52 L 46.61 50.378 L 45 49.502 L 46.61 48.61 L 47.502 47 z M 52.504 23 L 53.035 23.962 L 54 24.498 L 53.034 25.027 L 52.504 26 L 51.966 25.027 L 51 24.498 L 51.966 23.962 L 52.504 23 z"
              stroke-linecap="round"
            />
          </g>
          <g transform="matrix(1 0 0 1 0 2)">
            <path
              style="
                stroke: none;
                stroke-width: 1;
                stroke-dasharray: none;
                stroke-linecap: butt;
                stroke-dashoffset: 0;
                stroke-linejoin: miter;
                stroke-miterlimit: 4;
                fill: rgb(250, 239, 222);
                fill-rule: nonzero;
                opacity: 1;
              "
              transform=" translate(-32, -34)"
              d="M 47.018 17 L 17 17 C 16.386 17 15.917 17.548000000000002 16.013 18.155 L 16.776 23 L 41.373999999999995 23 L 40.66499999999999 29 L 25 29 L 25 35 L 39.956 35 L 39.055 42.625 L 32.094 44.747 L 25.947000000000003 42.665 L 25.503000000000004 39.844 C 25.426 39.358 25.007 39 24.515 39 L 20.466 39 C 19.852 39 19.383000000000003 39.549 19.478 40.156 L 20.492 46.595 C 20.549 46.957 20.802 47.257999999999996 21.150000000000002 47.375 L 31.703000000000003 50.949 C 31.804 50.983 31.908 51 32.013 51 C 32.108 51 32.202999999999996 50.986 32.294999999999995 50.958 L 43.937999999999995 47.41 C 44.312 47.296 44.583999999999996 46.971 44.629 46.583 L 47.519999999999996 22.118 L 47.995 18.098999999999997 C 48.064 17.514 47.607 17 47.018 17 z"
              stroke-linecap="round"
            />
          </g>
          <g transform="matrix(1 0 0 1 0 2)">
            <path
              style="
                stroke: none;
                stroke-width: 1;
                stroke-dasharray: none;
                stroke-linecap: butt;
                stroke-dashoffset: 0;
                stroke-linejoin: miter;
                stroke-miterlimit: 4;
                fill: rgb(141, 108, 159);
                fill-rule: nonzero;
                opacity: 1;
              "
              transform=" translate(-32, -34)"
              d="M 32.014 52 C 31.803000000000004 52 31.593000000000004 51.966 31.390000000000004 51.898 L 20.830000000000005 48.322 C 20.129000000000005 48.086000000000006 19.621000000000006 47.484 19.505000000000006 46.752 L 18.490000000000006 40.311 C 18.399000000000004 39.733 18.565000000000005 39.146 18.945000000000004 38.701 C 19.326000000000004 38.256 19.880000000000003 38.001 20.466000000000005 38.001 L 24.516000000000005 38.001 C 25.507000000000005 38.001 26.338000000000005 38.711999999999996 26.492000000000004 39.690999999999995 L 26.842000000000006 41.913 L 32.11200000000001 43.696999999999996 L 38.141000000000005 41.85999999999999 L 38.831 36 L 25 36 C 24.447 36 24 35.553 24 35 L 24 29 C 24 28.447 24.447 28 25 28 L 39.775999999999996 28 L 40.248999999999995 24 L 16.775 24 C 16.282999999999998 24 15.863999999999999 23.642 15.786999999999999 23.155 L 15.024 18.309 C 14.933 17.732 15.098999999999998 17.145 15.479 16.700000000000003 C 15.86 16.255 16.414 16 17 16 L 47.019 16 C 47.585 16 48.125 16.243 48.501999999999995 16.666 C 48.876999999999995 17.089 49.05499999999999 17.654 48.98799999999999 18.217 L 45.62299999999999 46.699 C 45.52999999999999 47.480999999999995 44.98399999999999 48.135999999999996 44.22999999999999 48.364999999999995 L 32.58699999999999 51.91499999999999 C 32.402 51.972 32.209 52 32.014 52 z M 20.466 40 L 21.481 46.439 L 32.024 50.002 L 43.647 46.452000000000005 L 47 18 L 17 18 L 17.63 22 L 41.373999999999995 22 C 41.66 22 41.931999999999995 22.122 42.120999999999995 22.336 C 42.31099999999999 22.549 42.4 22.834 42.367 23.116999999999997 L 41.657999999999994 29.116999999999997 C 41.599 29.621 41.172 30 40.665 30 L 26 30 L 26 34 L 39.956 34 C 40.241 34 40.514 34.122 40.703 34.336 C 40.893 34.549 40.982000000000006 34.833999999999996 40.949000000000005 35.117 L 40.04900000000001 42.742 C 40.00200000000001 43.137 39.727000000000004 43.465999999999994 39.348000000000006 43.580999999999996 L 32.38700000000001 45.702999999999996 C 32.18600000000001 45.76499999999999 31.97200000000001 45.76199999999999 31.77500000000001 45.693999999999996 L 25.628000000000007 43.611999999999995 C 25.275000000000006 43.492999999999995 25.019000000000005 43.187999999999995 24.960000000000008 42.81999999999999 L 24.515 40 L 20.466 40 z"
              stroke-linecap="round"
            />
          </g>
        </g>
      </svg>