<svg
      viewBox="0 0 24 24"
      xmlns="http://www.w3.org/2000/svg"
      xmlns:xlink="http://www.w3.org/1999/xlink"
    >
      <rect width="24" height="24" stroke="none" fill="#000000" opacity="0" />

      <g transform="matrix(0.31 0 0 0.31 12 12)">
        <g transform="matrix(1 0 0 1 0 0)">
          <linearGradient
            id="SVGID_YwxPpPpmt27jEozxWMuiGa_1"
            gradientUnits="userSpaceOnUse"
            gradientTransform="matrix(1 0 0 1 0 0)"
            x1="32"
            y1="5.875"
            x2="32"
            y2="57.948"
          >
            <stop
              offset="0%"
              style="stop-color: rgb(26, 109, 255); stop-opacity: 1"
            />
            <stop
              offset="100%"
              style="stop-color: rgb(200, 34, 255); stop-opacity: 1"
            />
          </linearGradient>
          <path
            style="
              stroke: none;
              stroke-width: 1;
              stroke-dasharray: none;
              stroke-linecap: butt;
              stroke-dashoffset: 0;
              stroke-linejoin: miter;
              stroke-miterlimit: 4;
              fill: url(#SVGID_YwxPpPpmt27jEozxWMuiGa_1);
              fill-rule: nonzero;
              opacity: 1;
            "
            transform=" translate(-32, -32)"
            d="M 53 24 L 53 22 C 53 20.897 52.103 20 51 20 L 39 20 L 39 18 L 41 18 C 42.103 18 43 17.103 43 16 L 43 8 C 43 6.897 42.103 6 41 6 L 23 6 C 21.897 6 21 6.897 21 8 L 21 16 C 21 17.103 21.897 18 23 18 L 25 18 L 25 20 L 13 20 C 11.897 20 11 20.897 11 22 L 11 24 C 11 25.103 11.897 26 13 26 L 13 56 L 11 56 L 11 58 L 13 58 L 51 58 L 53 58 L 53 56 L 51 56 L 51 26 C 52.103 26 53 25.103 53 24 z M 23 8 L 41 8 L 41.002 16 L 23 16 L 23 8 z M 27 18 L 37 18 L 37 20 L 27 20 L 27 18 z M 13 22 L 51 22 L 51.002 24 L 13 24 L 13 22 z M 15 54 L 27 54 L 27 56 L 15 56 L 15 54 z M 35 56 L 29 56 L 29 44 L 35 44 L 35 56 z M 37 56 L 37 54 L 49 54 L 49 56 L 37 56 z M 49 52 L 37 52 L 37 44 C 37 42.897 36.103 42 35 42 L 29 42 C 27.897 42 27 42.897 27 44 L 27 52 L 15 52 L 15 26 L 49 26 L 49 52 z"
            stroke-linecap="round"
          />
        </g>
        <g transform="matrix(1 0 0 1 1 18)">
          <linearGradient
            id="SVGID_YwxPpPpmt27jEozxWMuiGb_2"
            gradientUnits="userSpaceOnUse"
            gradientTransform="matrix(1 0 0 1 0 0)"
            x1="33"
            y1="5.875"
            x2="33"
            y2="57.948"
          >
            <stop
              offset="0%"
              style="stop-color: rgb(26, 109, 255); stop-opacity: 1"
            />
            <stop
              offset="100%"
              style="stop-color: rgb(200, 34, 255); stop-opacity: 1"
            />
          </linearGradient>
          <path
            style="
              stroke: none;
              stroke-width: 1;
              stroke-dasharray: none;
              stroke-linecap: butt;
              stroke-dashoffset: 0;
              stroke-linejoin: miter;
              stroke-miterlimit: 4;
              fill: url(#SVGID_YwxPpPpmt27jEozxWMuiGb_2);
              fill-rule: nonzero;
              opacity: 1;
            "
            transform=" translate(-33, -50)"
            d="M 32 48 L 34 48 L 34 52 L 32 52 z"
            stroke-linecap="round"
          />
        </g>
        <g transform="matrix(1 0 0 1 11 14)">
          <linearGradient
            id="SVGID_YwxPpPpmt27jEozxWMuiGc_3"
            gradientUnits="userSpaceOnUse"
            gradientTransform="matrix(1 0 0 1 0 0)"
            x1="43"
            y1="5.875"
            x2="43"
            y2="57.948"
          >
            <stop
              offset="0%"
              style="stop-color: rgb(26, 109, 255); stop-opacity: 1"
            />
            <stop
              offset="100%"
              style="stop-color: rgb(200, 34, 255); stop-opacity: 1"
            />
          </linearGradient>
          <path
            style="
              stroke: none;
              stroke-width: 1;
              stroke-dasharray: none;
              stroke-linecap: butt;
              stroke-dashoffset: 0;
              stroke-linejoin: miter;
              stroke-miterlimit: 4;
              fill: url(#SVGID_YwxPpPpmt27jEozxWMuiGc_3);
              fill-rule: nonzero;
              opacity: 1;
            "
            transform=" translate(-43, -46)"
            d="M 47 42 L 39 42 L 39 50 L 47 50 L 47 42 z M 45 48 L 41 48 L 41 44 L 45 44 L 45 48 z"
            stroke-linecap="round"
          />
        </g>
        <g transform="matrix(1 0 0 1 -11 14)">
          <linearGradient
            id="SVGID_YwxPpPpmt27jEozxWMuiGd_4"
            gradientUnits="userSpaceOnUse"
            gradientTransform="matrix(1 0 0 1 0 0)"
            x1="21"
            y1="5.875"
            x2="21"
            y2="57.948"
          >
            <stop
              offset="0%"
              style="stop-color: rgb(26, 109, 255); stop-opacity: 1"
            />
            <stop
              offset="100%"
              style="stop-color: rgb(200, 34, 255); stop-opacity: 1"
            />
          </linearGradient>
          <path
            style="
              stroke: none;
              stroke-width: 1;
              stroke-dasharray: none;
              stroke-linecap: butt;
              stroke-dashoffset: 0;
              stroke-linejoin: miter;
              stroke-miterlimit: 4;
              fill: url(#SVGID_YwxPpPpmt27jEozxWMuiGd_4);
              fill-rule: nonzero;
              opacity: 1;
            "
            transform=" translate(-21, -46)"
            d="M 25 50 L 25 42 L 17 42 L 17 50 L 25 50 z M 19 44 L 23 44 L 23 48 L 19 48 L 19 44 z"
            stroke-linecap="round"
          />
        </g>
        <g transform="matrix(1 0 0 1 11 2)">
          <linearGradient
            id="SVGID_YwxPpPpmt27jEozxWMuiGe_5"
            gradientUnits="userSpaceOnUse"
            gradientTransform="matrix(1 0 0 1 0 0)"
            x1="43"
            y1="5.875"
            x2="43"
            y2="57.948"
          >
            <stop
              offset="0%"
              style="stop-color: rgb(26, 109, 255); stop-opacity: 1"
            />
            <stop
              offset="100%"
              style="stop-color: rgb(200, 34, 255); stop-opacity: 1"
            />
          </linearGradient>
          <path
            style="
              stroke: none;
              stroke-width: 1;
              stroke-dasharray: none;
              stroke-linecap: butt;
              stroke-dashoffset: 0;
              stroke-linejoin: miter;
              stroke-miterlimit: 4;
              fill: url(#SVGID_YwxPpPpmt27jEozxWMuiGe_5);
              fill-rule: nonzero;
              opacity: 1;
            "
            transform=" translate(-43, -34)"
            d="M 47 30 L 39 30 L 39 38 L 47 38 L 47 30 z M 45 36 L 41 36 L 41 32 L 45 32 L 45 36 z"
            stroke-linecap="round"
          />
        </g>
        <g transform="matrix(1 0 0 1 -11 2)">
          <linearGradient
            id="SVGID_YwxPpPpmt27jEozxWMuiGf_6"
            gradientUnits="userSpaceOnUse"
            gradientTransform="matrix(1 0 0 1 0 0)"
            x1="21"
            y1="5.875"
            x2="21"
            y2="57.948"
          >
            <stop
              offset="0%"
              style="stop-color: rgb(26, 109, 255); stop-opacity: 1"
            />
            <stop
              offset="100%"
              style="stop-color: rgb(200, 34, 255); stop-opacity: 1"
            />
          </linearGradient>
          <path
            style="
              stroke: none;
              stroke-width: 1;
              stroke-dasharray: none;
              stroke-linecap: butt;
              stroke-dashoffset: 0;
              stroke-linejoin: miter;
              stroke-miterlimit: 4;
              fill: url(#SVGID_YwxPpPpmt27jEozxWMuiGf_6);
              fill-rule: nonzero;
              opacity: 1;
            "
            transform=" translate(-21, -34)"
            d="M 25 30 L 17 30 L 17 38 L 25 38 L 25 30 z M 23 36 L 19 36 L 19 32 L 23 32 L 23 36 z"
            stroke-linecap="round"
          />
        </g>
        <g transform="matrix(1 0 0 1 0 2)">
          <linearGradient
            id="SVGID_YwxPpPpmt27jEozxWMuiGg_7"
            gradientUnits="userSpaceOnUse"
            gradientTransform="matrix(1 0 0 1 0 0)"
            x1="32"
            y1="5.875"
            x2="32"
            y2="57.948"
          >
            <stop
              offset="0%"
              style="stop-color: rgb(26, 109, 255); stop-opacity: 1"
            />
            <stop
              offset="100%"
              style="stop-color: rgb(200, 34, 255); stop-opacity: 1"
            />
          </linearGradient>
          <path
            style="
              stroke: none;
              stroke-width: 1;
              stroke-dasharray: none;
              stroke-linecap: butt;
              stroke-dashoffset: 0;
              stroke-linejoin: miter;
              stroke-miterlimit: 4;
              fill: url(#SVGID_YwxPpPpmt27jEozxWMuiGg_7);
              fill-rule: nonzero;
              opacity: 1;
            "
            transform=" translate(-32, -34)"
            d="M 36 30 L 28 30 L 28 38 L 36 38 L 36 30 z M 34 36 L 30 36 L 30 32 L 34 32 L 34 36 z"
            stroke-linecap="round"
          />
        </g>
        <g transform="matrix(1 0 0 1 0 -20)">
          <linearGradient
            id="SVGID_YwxPpPpmt27jEozxWMuiGh_8"
            gradientUnits="userSpaceOnUse"
            gradientTransform="matrix(1 0 0 1 0 0)"
            x1="32"
            y1="5.875"
            x2="32"
            y2="57.948"
          >
            <stop
              offset="0%"
              style="stop-color: rgb(26, 109, 255); stop-opacity: 1"
            />
            <stop
              offset="100%"
              style="stop-color: rgb(200, 34, 255); stop-opacity: 1"
            />
          </linearGradient>
          <path
            style="
              stroke: none;
              stroke-width: 1;
              stroke-dasharray: none;
              stroke-linecap: butt;
              stroke-dashoffset: 0;
              stroke-linejoin: miter;
              stroke-miterlimit: 4;
              fill: url(#SVGID_YwxPpPpmt27jEozxWMuiGh_8);
              fill-rule: nonzero;
              opacity: 1;
            "
            transform=" translate(-32, -12)"
            d="M 28 11 L 36 11 L 36 13 L 28 13 z"
            stroke-linecap="round"
          />
        </g>
        <g transform="matrix(1 0 0 1 11 23)">
          <linearGradient
            id="SVGID_YwxPpPpmt27jEozxWMuiGi_9"
            gradientUnits="userSpaceOnUse"
            gradientTransform="matrix(1 0 0 1 0 0)"
            x1="43"
            y1="53.375"
            x2="43"
            y2="56.88"
          >
            <stop
              offset="0%"
              style="stop-color: rgb(109, 199, 255); stop-opacity: 1"
            />
            <stop
              offset="100%"
              style="stop-color: rgb(230, 171, 255); stop-opacity: 1"
            />
          </linearGradient>
          <path
            style="
              stroke: none;
              stroke-width: 1;
              stroke-dasharray: none;
              stroke-linecap: butt;
              stroke-dashoffset: 0;
              stroke-linejoin: miter;
              stroke-miterlimit: 4;
              fill: url(#SVGID_YwxPpPpmt27jEozxWMuiGi_9);
              fill-rule: nonzero;
              opacity: 1;
            "
            transform=" translate(-43, -55)"
            d="M 37 54 L 49 54 L 49 56 L 37 56 z"
            stroke-linecap="round"
          />
        </g>
        <g transform="matrix(1 0 0 1 -11 23)">
          <linearGradient
            id="SVGID_YwxPpPpmt27jEozxWMuiGj_10"
            gradientUnits="userSpaceOnUse"
            gradientTransform="matrix(1 0 0 1 0 0)"
            x1="21"
            y1="53.375"
            x2="21"
            y2="56.88"
          >
            <stop
              offset="0%"
              style="stop-color: rgb(109, 199, 255); stop-opacity: 1"
            />
            <stop
              offset="100%"
              style="stop-color: rgb(230, 171, 255); stop-opacity: 1"
            />
          </linearGradient>
          <path
            style="
              stroke: none;
              stroke-width: 1;
              stroke-dasharray: none;
              stroke-linecap: butt;
              stroke-dashoffset: 0;
              stroke-linejoin: miter;
              stroke-miterlimit: 4;
              fill: url(#SVGID_YwxPpPpmt27jEozxWMuiGj_10);
              fill-rule: nonzero;
              opacity: 1;
            "
            transform=" translate(-21, -55)"
            d="M 15 54 L 27 54 L 27 56 L 15 56 z"
            stroke-linecap="round"
          />
        </g>
      </g>
    </svg>