
      <svg
      class="test-logo"
        width="24"
        height="24"
        viewBox="0 0 24 24"
        xmlns="http://www.w3.org/2000/svg"
        xmlns:xlink="http://www.w3.org/1999/xlink"
      >
        <rect
          width="24"
          height="24"
          stroke="none"
          fill="#000000"
          opacity="0"
        />

        <g transform="matrix(0.31 0 0 0.31 12 12)">
          <g transform="matrix(1 0 0 1 -1 4.13)">
            <linearGradient
              id="SVGID_KpzH_ttTMIjq8dhx1zD2pa_1"
              gradientUnits="userSpaceOnUse"
              gradientTransform="matrix(1 0 0 1 0 0)"
              x1="30.999"
              y1="16"
              x2="30.999"
              y2="55.342"
            >
              <stop
                offset="0%"
                style="stop-color: rgb(109, 199, 255); stop-opacity: 1"
              />
              <stop
                offset="100%"
                style="stop-color: rgb(230, 171, 255); stop-opacity: 1"
              />
            </linearGradient>
            <path
              style="
                stroke: none;
                stroke-width: 1;
                stroke-dasharray: none;
                stroke-linecap: butt;
                stroke-dashoffset: 0;
                stroke-linejoin: miter;
                stroke-miterlimit: 4;
                fill: url(#SVGID_KpzH_ttTMIjq8dhx1zD2pa_1);
                fill-rule: nonzero;
                opacity: 1;
              "
              transform=" translate(-31, -36.13)"
              d="M 25.008 56.007 C 25.005 55.638999999999996 25.002 54.044999999999995 24.999 52.553 L 24.996 51.003 C 18.267 51.918 16.637999999999998 47.223 16.619999999999997 47.173 C 15.685999999999998 44.805 14.408999999999997 44.128 14.353999999999997 44.1 L 14.229999999999997 44.028 C 13.766999999999998 43.711999999999996 12.538999999999996 42.870999999999995 12.887999999999996 41.765 C 13.202999999999996 40.768 14.423999999999996 40.665 14.978999999999996 40.683 C 18.052999999999997 40.898 19.608999999999995 43.661 19.672999999999995 43.778 C 21.241999999999994 46.467 23.636999999999993 46.189 25.181999999999995 45.622 C 25.325999999999993 44.934 25.548999999999996 44.302 25.840999999999994 43.744 C 20.885 42.865 15.27 40.229 15.27 30.64 C 15.27 28.007 16.09 25.68 17.711 23.711 C 17.349 22.505 16.936999999999998 20.044999999999998 18.157 16.945999999999998 L 18.331 16.503999999999998 L 18.783 16.36 C 19.199 16.223 21.471 15.735999999999999 26.142000000000003 18.793 C 28.070000000000004 18.299 30.111000000000004 18.044 32.216 18.034 C 34.331 18.044 36.374 18.299 38.306 18.793 C 42.973 15.735 45.239999999999995 16.227999999999998 45.657 16.36 L 46.108 16.505 L 46.282 16.945 C 47.507 20.043 47.095 22.504 46.733 23.711 C 48.351 25.674 49.171 28.002 49.171 30.64 C 49.171 40.231 43.55 42.859 38.583 43.727000000000004 C 39.146 44.792 39.451 46.129000000000005 39.451 47.605000000000004 C 39.451 49.288000000000004 39.444 54.809000000000005 39.436 56.007000000000005 L 37.436 55.993 C 37.444 54.797000000000004 37.451 49.285000000000004 37.451 47.604 C 37.451 45.162 36.508 44.082 36.101 43.73 L 34.371 42.233 L 36.645 41.98 C 41.85 41.401999999999994 47.17 39.601 47.17 30.638999999999996 C 47.17 28.308999999999997 46.393 26.277999999999995 44.86 24.602999999999994 L 44.43 24.133999999999993 L 44.672 23.546999999999993 C 44.837999999999994 23.145999999999994 45.565999999999995 21.104999999999993 44.629 18.255999999999993 C 43.870999999999995 18.300999999999995 42.061 18.657999999999994 39.045 20.702999999999992 L 38.661 20.961999999999993 L 38.216 20.83899999999999 C 36.353 20.32099999999999 34.278 20.042999999999992 32.215 20.03299999999999 C 30.163000000000004 20.042999999999992 28.091000000000005 20.32099999999999 26.231 20.83899999999999 L 25.786 20.961999999999993 L 25.403000000000002 20.702999999999992 C 22.384 18.658999999999992 20.57 18.298999999999992 19.809 18.25399999999999 C 18.874000000000002 21.10499999999999 19.603 23.14599999999999 19.769000000000002 23.54699999999999 L 20.011000000000003 24.13399999999999 L 19.582000000000004 24.60299999999999 C 18.046000000000003 26.283999999999992 17.268000000000004 28.31499999999999 17.268000000000004 30.63899999999999 C 17.268000000000004 39.59699999999999 22.578000000000003 41.40899999999999 27.772000000000006 41.999999999999986 L 30.024000000000004 42.255999999999986 L 28.316000000000006 43.74599999999999 C 27.944000000000006 44.07099999999999 27.286000000000005 44.85799999999999 27.062000000000005 46.472999999999985 L 26.987000000000005 47.021999999999984 L 26.481000000000005 47.24899999999998 C 25.160000000000004 47.84099999999998 20.642000000000003 49.41099999999998 17.933000000000007 44.76399999999998 C 17.918000000000006 44.73899999999998 17.389000000000006 43.81899999999998 16.431000000000008 43.20699999999998 C 17.07700000000001 43.84599999999998 17.864000000000008 44.87999999999998 18.49900000000001 46.49399999999998 C 18.56500000000001 46.683999999999976 19.85600000000001 50.11599999999998 25.77900000000001 48.83299999999998 L 26.98500000000001 48.57099999999998 L 26.99700000000001 52.54899999999998 C 27.00000000000001 54.03599999999998 27.00300000000001 55.62499999999998 27.00600000000001 55.99299999999998 L 25.008 56.007 z"
              stroke-linecap="round"
            />
          </g>
          <g transform="matrix(1 0 0 1 0 0)">
            <linearGradient
              id="SVGID_KpzH_ttTMIjq8dhx1zD2pb_2"
              gradientUnits="userSpaceOnUse"
              gradientTransform="matrix(1 0 0 1 0 0)"
              x1="32"
              y1="5"
              x2="32"
              y2="59.167"
            >
              <stop
                offset="0%"
                style="stop-color: rgb(26, 109, 255); stop-opacity: 1"
              />
              <stop
                offset="100%"
                style="stop-color: rgb(200, 34, 255); stop-opacity: 1"
              />
            </linearGradient>
            <path
              style="
                stroke: none;
                stroke-width: 1;
                stroke-dasharray: none;
                stroke-linecap: butt;
                stroke-dashoffset: 0;
                stroke-linejoin: miter;
                stroke-miterlimit: 4;
                fill: url(#SVGID_KpzH_ttTMIjq8dhx1zD2pb_2);
                fill-rule: nonzero;
                opacity: 1;
              "
              transform=" translate(-32, -32)"
              d="M 32 58 C 17.663 58 6 46.337 6 32 C 6 17.662999999999997 17.663 6 32 6 C 46.337 6 58 17.663 58 32 C 58 46.337 46.337 58 32 58 z M 32 8 C 18.767 8 8 18.767 8 32 C 8 45.233000000000004 18.767 56 32 56 C 45.233000000000004 56 56 45.233000000000004 56 32 C 56 18.766999999999996 45.233 8 32 8 z"
              stroke-linecap="round"
            />
          </g>
        </g>
      </svg>