 <svg
    
        viewBox="0 0 24 24"
        xmlns="http://www.w3.org/2000/svg"
        xmlns:xlink="http://www.w3.org/1999/xlink"
      >
        <rect
          width="24"
          height="24"
          stroke="none"
          fill="#000000"
          opacity="0"
        />

        <g transform="matrix(0.31 0 0 0.31 12 12)">
          <g transform="matrix(1 0 0 1 0.09 -0.04)">
            <linearGradient
              id="SVGID_slr0fspJZ8Sloslbv8ri_a_1"
              gradientUnits="userSpaceOnUse"
              gradientTransform="matrix(1 0 0 1 0 0)"
              x1="32.092"
              y1="7.766"
              x2="32.092"
              y2="57.066"
            >
              <stop
                offset="0%"
                style="stop-color: rgb(26, 109, 255); stop-opacity: 1"
              />
              <stop
                offset="100%"
                style="stop-color: rgb(200, 34, 255); stop-opacity: 1"
              />
            </linearGradient>
            <path
              style="
                stroke: none;
                stroke-width: 1;
                stroke-dasharray: none;
                stroke-linecap: butt;
                stroke-dashoffset: 0;
                stroke-linejoin: miter;
                stroke-miterlimit: 4;
                fill: url(#SVGID_slr0fspJZ8Sloslbv8ri_a_1);
                fill-rule: nonzero;
                opacity: 1;
              "
              transform=" translate(-32.09, -31.96)"
              d="M 53.316 8.324 C 53.127 8.118 52.859 8 52.579 8 L 13.605 8 C 12.765 8 11.959 8.355 11.392 8.975 C 10.825 9.594999999999999 10.542 10.427999999999999 10.616999999999999 11.264 L 13.934999999999999 48.876999999999995 C 14.043999999999999 50.105999999999995 14.913999999999998 51.157999999999994 16.099999999999998 51.49699999999999 L 31.174999999999997 55.80499999999999 C 31.444999999999997 55.88099999999999 31.721999999999998 55.919999999999995 31.999 55.919999999999995 C 32.275999999999996 55.919999999999995 32.554 55.88099999999999 32.823 55.80499999999999 L 47.897999999999996 51.49699999999999 C 49.083999999999996 51.157999999999994 49.95399999999999 50.10499999999999 50.062999999999995 48.87599999999999 L 53.574 9.087999999999994 C 53.6 8.809 53.506 8.531 53.316 8.324 z M 48.072 48.699 C 48.035000000000004 49.116 47.752 49.458999999999996 47.35 49.573 L 32.275000000000006 53.881 C 32.095000000000006 53.934 31.904000000000007 53.934 31.724000000000007 53.881 L 16.649000000000008 49.573 C 16.248000000000008 49.459 15.964000000000008 49.116 15.927000000000008 48.7 L 12.609000000000009 11.088000000000001 C 12.584000000000009 10.805000000000001 12.67500000000001 10.534 12.86800000000001 10.325000000000001 C 13.06 10.115 13.321 10 13.605 10 L 51.486999999999995 10 L 48.072 48.699 z"
              stroke-linecap="round"
            />
          </g>
          <g transform="matrix(1 0 0 1 0 -0.08)">
            <linearGradient
              id="SVGID_slr0fspJZ8Sloslbv8ri_b_2"
              gradientUnits="userSpaceOnUse"
              gradientTransform="matrix(1 0 0 1 0 0)"
              x1="32.001"
              y1="7.766"
              x2="32.001"
              y2="57.066"
            >
              <stop
                offset="0%"
                style="stop-color: rgb(26, 109, 255); stop-opacity: 1"
              />
              <stop
                offset="100%"
                style="stop-color: rgb(200, 34, 255); stop-opacity: 1"
              />
            </linearGradient>
            <path
              style="
                stroke: none;
                stroke-width: 1;
                stroke-dasharray: none;
                stroke-linecap: butt;
                stroke-dashoffset: 0;
                stroke-linejoin: miter;
                stroke-miterlimit: 4;
                fill: url(#SVGID_slr0fspJZ8Sloslbv8ri_b_2);
                fill-rule: nonzero;
                opacity: 1;
              "
              transform=" translate(-32, -31.92)"
              d="M 18.521 48.028 L 31.726 51.801 C 31.816 51.826 31.907999999999998 51.839 32 51.839 C 32.092 51.839 32.185 51.826 32.274 51.801 L 45.479 48.028 C 45.877 47.914 46.165 47.565999999999995 46.201 47.153999999999996 L 49.207 13.087999999999994 C 49.231 12.808999999999994 49.138 12.530999999999993 48.948 12.323999999999995 C 48.759 12.118 48.491 12 48.211 12 L 15.79 12 C 15.51 12 15.241999999999999 12.118 15.052999999999999 12.324 C 14.863999999999999 12.531 14.77 12.808 14.793999999999999 13.088 L 17.799 47.154 C 17.835 47.566 18.122 47.914 18.521 48.028 z M 47.119 14 L 44.269 46.294 L 32 49.8 L 19.73 46.294 L 16.882 14 L 47.119 14 z"
              stroke-linecap="round"
            />
          </g>
          <g transform="matrix(1 0 0 1 0 -0.51)">
            <linearGradient
              id="SVGID_slr0fspJZ8Sloslbv8ri_c_3"
              gradientUnits="userSpaceOnUse"
              gradientTransform="matrix(1 0 0 1 0 0)"
              x1="31.995"
              y1="19.575"
              x2="31.995"
              y2="40.626"
            >
              <stop
                offset="0%"
                style="stop-color: rgb(109, 199, 255); stop-opacity: 1"
              />
              <stop
                offset="100%"
                style="stop-color: rgb(230, 171, 255); stop-opacity: 1"
              />
            </linearGradient>
            <path
              style="
                stroke: none;
                stroke-width: 1;
                stroke-dasharray: none;
                stroke-linecap: butt;
                stroke-dashoffset: 0;
                stroke-linejoin: miter;
                stroke-miterlimit: 4;
                fill: url(#SVGID_slr0fspJZ8Sloslbv8ri_c_3);
                fill-rule: nonzero;
                opacity: 1;
              "
              transform=" translate(-32, -31.49)"
              d="M 41.661 23.541 L 41.906 20.541 C 41.93 20.249 41.7 20 41.408 20 L 22.583 20 C 22.293999999999997 20 22.066 20.244 22.084 20.532 L 22.782 31.532 C 22.798 31.795 23.017 32 23.281 32 L 36.197 32 C 36.486000000000004 32 36.715 32.245 36.696000000000005 32.533 L 36.42700000000001 36.594 C 36.41400000000001 36.795 36.281000000000006 36.969 36.09 37.034 L 32.108000000000004 38.394 C 32.00300000000001 38.43 31.890000000000004 38.43 31.785000000000004 38.394 L 27.8 37.033 C 27.61 36.968 27.478 36.797000000000004 27.463 36.597 L 27.304000000000002 34.463 C 27.285 34.202 27.067 34 26.805 34 L 23.456 34 C 23.166 34 22.937 34.246 22.957 34.535 L 23.331 39.854 C 23.345 40.057 23.480999999999998 40.23 23.673 40.294 L 31.787999999999997 42.964999999999996 C 31.889999999999997 42.998 31.998999999999995 42.998 32.101 42.964999999999996 L 40.214 40.294999999999995 C 40.408 40.230999999999995 40.544 40.05499999999999 40.557 39.85099999999999 L 41.264 28.53099999999999 C 41.282 28.243 41.054 28 40.765 28 L 27.404 28 C 27.144 28 26.927 27.8 26.906 27.541 L 26.660999999999998 24.541 C 26.638 24.249 26.867 24 27.16 24 L 41.163 24 C 41.423 24 41.64 23.8 41.661 23.541 z"
              stroke-linecap="round"
            />
          </g>
        </g>
      </svg>
