<svg
      class="test-logo"
        width="24"
        height="24"
        viewBox="0 0 24 24"
        xmlns="http://www.w3.org/2000/svg"
        xmlns:xlink="http://www.w3.org/1999/xlink"
      >
        <rect
          width="24"
          height="24"
          stroke="none"
          fill="#000000"
          opacity="0"
        />

        <g transform="matrix(0.31 0 0 0.31 12 12)">
          <g transform="matrix(1 0 0 1 0 0)" id="Layer_1">
            <linearGradient
              id="SVGID_SVGID_1__1"
              gradientUnits="userSpaceOnUse"
              gradientTransform="matrix(1 0 0 1 0 0)"
              x1="32"
              y1="9.043"
              x2="32"
              y2="55.011"
            >
              <stop
                offset="0%"
                style="stop-color: rgb(26, 109, 255); stop-opacity: 1"
              />
              <stop
                offset="100%"
                style="stop-color: rgb(200, 34, 255); stop-opacity: 1"
              />
            </linearGradient>
            <path
              style="
                stroke: none;
                stroke-width: 1;
                stroke-dasharray: none;
                stroke-linecap: butt;
                stroke-dashoffset: 0;
                stroke-linejoin: miter;
                stroke-miterlimit: 4;
                fill: url(#SVGID_SVGID_1__1);
                fill-rule: nonzero;
                opacity: 1;
              "
              transform=" translate(-32, -32)"
              d="M 51 8 L 13 8 C 10.2 8 8 10.2 8 13 L 8 51 C 8 53.8 10.2 56 13 56 L 51 56 C 53.8 56 56 53.8 56 51 L 56 13 C 56 10.2 53.8 8 51 8 z M 54 51 C 54 52.7 52.7 54 51 54 L 13 54 C 11.3 54 10 52.7 10 51 L 10 13 C 10 11.3 11.3 10 13 10 L 51 10 C 52.7 10 54 11.3 54 13 L 54 51 z"
              stroke-linecap="round"
            />
          </g>
          <g transform="matrix(1 0 0 1 13.63 10.95)" id="Layer_1">
            <linearGradient
              id="SVGID_SVGID_2__2"
              gradientUnits="userSpaceOnUse"
              gradientTransform="matrix(1 0 0 1 0 0)"
              x1="45.578"
              y1="35.681"
              x2="45.578"
              y2="50.191"
            >
              <stop
                offset="0%"
                style="stop-color: rgb(109, 199, 255); stop-opacity: 1"
              />
              <stop
                offset="100%"
                style="stop-color: rgb(230, 171, 255); stop-opacity: 1"
              />
            </linearGradient>
            <path
              style="
                stroke: none;
                stroke-width: 1;
                stroke-dasharray: none;
                stroke-linecap: butt;
                stroke-dashoffset: 0;
                stroke-linejoin: miter;
                stroke-miterlimit: 4;
                fill: url(#SVGID_SVGID_2__2);
                fill-rule: nonzero;
                opacity: 1;
              "
              transform=" translate(-45.63, -42.95)"
              d="M 46.7 41.5 L 45.900000000000006 41.2 C 44.50000000000001 40.6 43.900000000000006 40.2 43.900000000000006 39.2 C 43.900000000000006 38.400000000000006 44.50000000000001 37.800000000000004 45.400000000000006 37.800000000000004 C 46.2 37.800000000000004 46.7 38.1 47.2 38.800000000000004 C 47.300000000000004 39.00000000000001 47.6 39.1 47.900000000000006 38.900000000000006 L 49.60000000000001 37.800000000000004 C 49.80000000000001 37.7 49.900000000000006 37.300000000000004 49.80000000000001 37.1 C 48.80000000000001 35.6 47.40000000000001 35 45.500000000000014 35 C 42.600000000000016 35 40.80000000000001 36.8 40.80000000000001 39.2 C 40.80000000000001 41.800000000000004 42.30000000000001 43.1 44.70000000000001 44 L 45.50000000000001 44.3 C 47.00000000000001 44.9 47.70000000000001 45.3 47.70000000000001 46.4 C 47.70000000000001 47.3 47.00000000000001 48 45.70000000000001 48 C 44.30000000000001 48 43.60000000000001 47.2 42.90000000000001 46.2 C 42.70000000000001 46 42.40000000000001 45.900000000000006 42.20000000000001 46.1 L 40.50000000000001 47.2 C 40.300000000000004 47.300000000000004 40.20000000000001 47.6 40.300000000000004 47.900000000000006 C 41.300000000000004 49.60000000000001 42.900000000000006 50.900000000000006 45.7 50.900000000000006 C 48.800000000000004 50.900000000000006 51 49.300000000000004 51 46.400000000000006 C 51 43.8 49.5 42.6 46.7 41.5 z"
              stroke-linecap="round"
            />
          </g>
          <g transform="matrix(1 0 0 1 2.08 11)" id="Layer_1">
            <linearGradient
              id="SVGID_SVGID_3__3"
              gradientUnits="userSpaceOnUse"
              gradientTransform="matrix(1 0 0 1 0 0)"
              x1="34.081"
              y1="35.681"
              x2="34.081"
              y2="50.191"
            >
              <stop
                offset="0%"
                style="stop-color: rgb(109, 199, 255); stop-opacity: 1"
              />
              <stop
                offset="100%"
                style="stop-color: rgb(230, 171, 255); stop-opacity: 1"
              />
            </linearGradient>
            <path
              style="
                stroke: none;
                stroke-width: 1;
                stroke-dasharray: none;
                stroke-linecap: butt;
                stroke-dashoffset: 0;
                stroke-linejoin: miter;
                stroke-miterlimit: 4;
                fill: url(#SVGID_SVGID_3__3);
                fill-rule: nonzero;
                opacity: 1;
              "
              transform=" translate(-34.08, -43)"
              d="M 38.5 35 L 36.2 35 C 35.900000000000006 35 35.7 35.2 35.7 35.5 L 35.7 45.6 C 35.7 47.2 35.1 47.6 34 47.6 C 33.1 47.6 32.4 47.1 31.9 46.4 C 31.799999999999997 46.199999999999996 31.5 46.1 31.2 46.3 L 29.4 47.4 C 29.2 47.5 29.099999999999998 47.9 29.2 48.1 C 30.099999999999998 49.6 31.8 51 34.2 51 C 37.1 51 39 49.5 39 46.1 L 39 35.5 C 39 35.2 38.8 35 38.5 35 z"
              stroke-linecap="round"
            />
          </g>
        </g>
      </svg>