 <svg
        class="exp-ed"
        viewBox="0 0 24 24"
        xmlns="http://www.w3.org/2000/svg"
        xmlns:xlink="http://www.w3.org/1999/xlink"
      >
        <rect width="24" height="24" stroke="none" fill="#000000" opacity="0" />
        <g transform="matrix(0.31 0 0 0.31 12 12)">
          <g transform="matrix(1 0 0 1 3 6)">
            <linearGradient
              id="SVGID_jmFWbYXy~kN0aoMeurvQSa_1"
              gradientUnits="userSpaceOnUse"
              gradientTransform="matrix(1 0 0 1 0 0)"
              x1="35"
              y1="18.489"
              x2="35"
              y2="54.005"
            >
              <stop
                offset="0%"
                style="stop-color: rgb(26, 109, 255); stop-opacity: 1"
              />
              <stop
                offset="100%"
                style="stop-color: rgb(200, 34, 255); stop-opacity: 1"
              />
            </linearGradient>
            <path
              style="
                stroke: none;
                stroke-width: 1;
                stroke-dasharray: none;
                stroke-linecap: butt;
                stroke-dashoffset: 0;
                stroke-linejoin: miter;
                stroke-miterlimit: 4;
                fill: url(#SVGID_jmFWbYXy~kN0aoMeurvQSa_1);
                fill-rule: nonzero;
                opacity: 1;
              "
              transform=" translate(-35, -38)"
              d="M 39 39 L 53 39 C 54.103 39 55 38.103 55 37 L 55 27 C 55 25.897 54.103 25 53 25 L 39 25 C 37.897 25 37 25.897 37 27 L 37 29 L 35 29 C 33.897 29 33 29.897 33 31 L 26 31 L 22 31 C 20.346 31 19 29.654 19 28 L 19 24 C 20.103 24 21 23.103 21 22 L 21 19 C 21 18.448 20.552 18 20 18 L 16 18 C 15.448 18 15 18.448 15 19 L 15 22 C 15 23.103 15.897 24 17 24 L 17 47 C 17 49.757 19.243 52 22 52 L 33 52 C 33 53.103 33.897 54 35 54 L 37 54 L 37 56 C 37 57.103 37.897 58 39 58 L 53 58 C 54.103 58 55 57.103 55 56 L 55 46 C 55 44.897 54.103 44 53 44 L 39 44 C 37.897 44 37 44.897 37 46 L 37 48 L 35 48 C 33.897 48 33 48.897 33 50 L 22 50 C 20.346 50 19 48.653999999999996 19 47 L 19 36 C 19 34.346000000000004 20.346 33 22 33 L 26 33 L 33 33 C 33 34.103 33.897 35 35 35 L 37 35 L 37 37 C 37 38.103 37.897 39 39 39 z M 17 20 L 19 20 L 19.001 22 L 17 22 L 17 20 z M 39 46 L 53 46 L 53.001 56 L 39 56 L 39 53 L 39 49 L 39 46 z M 35 50 L 37 50 L 37 52 L 35 52.001 L 35 50 z M 19 32.026 L 19 31.975000000000005 C 19.011 31.983000000000004 19.02 31.993000000000006 19.031 32.001000000000005 C 19.02 32.008 19.011 32.017 19 32.026 z M 39 27 L 53 27 L 53.001 37 L 39 37 L 39 34 L 39 30 L 39 27 z M 35 33.001 L 35 31 L 37 31 L 37 33 L 35 33.001 z"
              stroke-linecap="round"
            />
          </g>
          <g transform="matrix(1 0 0 1 14 19)">
            <linearGradient
              id="SVGID_jmFWbYXy~kN0aoMeurvQSb_2"
              gradientUnits="userSpaceOnUse"
              gradientTransform="matrix(1 0 0 1 -46 -51)"
              x1="46"
              y1="47.936"
              x2="46"
              y2="53.474"
            >
              <stop
                offset="0%"
                style="stop-color: rgb(109, 199, 255); stop-opacity: 1"
              />
              <stop
                offset="100%"
                style="stop-color: rgb(230, 171, 255); stop-opacity: 1"
              />
            </linearGradient>
            <rect
              style="
                stroke: none;
                stroke-width: 1;
                stroke-dasharray: none;
                stroke-linecap: butt;
                stroke-dashoffset: 0;
                stroke-linejoin: miter;
                stroke-miterlimit: 4;
                fill: url(#SVGID_jmFWbYXy~kN0aoMeurvQSb_2);
                fill-rule: nonzero;
                opacity: 1;
              "
              x="-5"
              y="-3"
              rx="0"
              ry="0"
              width="10"
              height="6"
            />
          </g>
          <g transform="matrix(1 0 0 1 14 0)">
            <linearGradient
              id="SVGID_jmFWbYXy~kN0aoMeurvQSc_3"
              gradientUnits="userSpaceOnUse"
              gradientTransform="matrix(1 0 0 1 -46 -32)"
              x1="46"
              y1="29.043"
              x2="46"
              y2="35.005"
            >
              <stop
                offset="0%"
                style="stop-color: rgb(109, 199, 255); stop-opacity: 1"
              />
              <stop
                offset="100%"
                style="stop-color: rgb(230, 171, 255); stop-opacity: 1"
              />
            </linearGradient>
            <rect
              style="
                stroke: none;
                stroke-width: 1;
                stroke-dasharray: none;
                stroke-linecap: butt;
                stroke-dashoffset: 0;
                stroke-linejoin: miter;
                stroke-miterlimit: 4;
                fill: url(#SVGID_jmFWbYXy~kN0aoMeurvQSc_3);
                fill-rule: nonzero;
                opacity: 1;
              "
              x="-5"
              y="-3"
              rx="0"
              ry="0"
              width="10"
              height="6"
            />
          </g>
          <g transform="matrix(1 0 0 1 -14 -19)">
            <linearGradient
              id="SVGID_jmFWbYXy~kN0aoMeurvQSd_4"
              gradientUnits="userSpaceOnUse"
              gradientTransform="matrix(1 0 0 1 0 0)"
              x1="18"
              y1="6.83"
              x2="18"
              y2="18.916"
            >
              <stop
                offset="0%"
                style="stop-color: rgb(109, 199, 255); stop-opacity: 1"
              />
              <stop
                offset="100%"
                style="stop-color: rgb(230, 171, 255); stop-opacity: 1"
              />
            </linearGradient>
            <path
              style="
                stroke: none;
                stroke-width: 1;
                stroke-dasharray: none;
                stroke-linecap: butt;
                stroke-dashoffset: 0;
                stroke-linejoin: miter;
                stroke-miterlimit: 4;
                fill: url(#SVGID_jmFWbYXy~kN0aoMeurvQSd_4);
                fill-rule: nonzero;
                opacity: 1;
              "
              transform=" translate(-18, -13)"
              d="M 25 6 L 11 6 C 9.897 6 9 6.897 9 8 L 9 18 C 9 19.103 9.897 20 11 20 L 25 20 C 26.103 20 27 19.103 27 18 L 27 8 C 27 6.897 26.103 6 25 6 z"
              stroke-linecap="round"
            />
          </g>
        </g>
      </svg>