 <svg
        viewBox="0 0 24 24"
        xmlns="http://www.w3.org/2000/svg"
        xmlns:xlink="http://www.w3.org/1999/xlink"
      >
        <rect
          width="24"
          height="24"
          stroke="none"
          fill="#000000"
          opacity="0"
        />

        <g transform="matrix(0.31 0 0 0.31 12 12)">
          <g transform="matrix(1 0 0 1 0 0)" id="Layer_1">
            <linearGradient
              id="SVGID_SVGID_1__1"
              gradientUnits="userSpaceOnUse"
              gradientTransform="matrix(1 0 0 1 0 0)"
              x1="32"
              y1="6.872"
              x2="32"
              y2="59.727"
            >
              <stop
                offset="0%"
                style="stop-color: rgb(26, 109, 255); stop-opacity: 1"
              />
              <stop
                offset="100%"
                style="stop-color: rgb(200, 34, 255); stop-opacity: 1"
              />
            </linearGradient>
            <path
              style="
                stroke: none;
                stroke-width: 1;
                stroke-dasharray: none;
                stroke-linecap: butt;
                stroke-dashoffset: 0;
                stroke-linejoin: miter;
                stroke-miterlimit: 4;
                fill: url(#SVGID_SVGID_1__1);
                fill-rule: nonzero;
                opacity: 1;
              "
              transform=" translate(-32, -32)"
              d="M 55 16 L 54 16 L 54 15 C 54 13.3 52.7 12 51 12 L 50 12 L 17 12 L 17 6 L 13 6 C 9.1 6 6 9.1 6 13 L 6 51 C 6 52.8 6.7 54.6 8 55.9 C 9.3 57.3 11.1 58 13 58 L 50 58 L 55 58 C 56.7 58 58 56.7 58 55 L 58 19 C 58 17.3 56.7 16 55 16 z M 8 13 C 8 10.2 10.2 8 13 8 L 15 8 L 15 12.5 L 15 44 L 13.3 44 C 11.3 44 9.4 44.8 8 46.2 L 8 13 z M 56 55 C 56 55.6 55.6 56 55 56 L 50 56 L 13 56 C 11.6 56 10.4 55.5 9.4 54.5 C 8.5 53.5 7.9 52.2 8 50.9 C 8.1 48.199999999999996 10.4 46.1 13.2 46.1 L 17 46.1 L 17 14 L 51 14 C 51.6 14 52 14.4 52 15 L 52 51 C 52 51.6 51.6 52 51 52 L 20 52 L 20 54 L 51 54 C 52.7 54 54 52.7 54 51 L 54 18 L 55 18 C 55.6 18 56 18.4 56 19 L 56 55 z"
              stroke-linecap="round"
            />
          </g>
          <g transform="matrix(1 0 0 1 2 7.5)" id="Layer_1">
            <linearGradient
              id="SVGID_SVGID_2__2"
              gradientUnits="userSpaceOnUse"
              gradientTransform="matrix(1 0 0 1 -34 -39.5)"
              x1="34"
              y1="6.872"
              x2="34"
              y2="59.727"
            >
              <stop
                offset="0%"
                style="stop-color: rgb(26, 109, 255); stop-opacity: 1"
              />
              <stop
                offset="100%"
                style="stop-color: rgb(200, 34, 255); stop-opacity: 1"
              />
            </linearGradient>
            <polygon
              style="
                stroke: none;
                stroke-width: 1;
                stroke-dasharray: none;
                stroke-linecap: butt;
                stroke-dashoffset: 0;
                stroke-linejoin: miter;
                stroke-miterlimit: 4;
                fill: url(#SVGID_SVGID_2__2);
                fill-rule: nonzero;
                opacity: 1;
              "
              points="13,4.5 11,4.5 11,-4.5 9,-4.5 9,4.5 6,4.5 6,-3.5 4,-3.5 4,4.5 1,4.5 1,-5.5 -1,-5.5 -1,4.5 -4,4.5 -4,-6.5 -6,-6.5 -6,4.5 -9,4.5 -9,-2.5 -11,-2.5 -11,4.5 -13,4.5 -13,6.5 13,6.5 "
            />
          </g>
          <g transform="matrix(1 0 0 1 2.55 -5.52)" id="Layer_1">
            <linearGradient
              id="SVGID_SVGID_3__3"
              gradientUnits="userSpaceOnUse"
              gradientTransform="matrix(1 0 0 1 0 0)"
              x1="34.455"
              y1="20.277"
              x2="34.455"
              y2="30.812"
            >
              <stop
                offset="0%"
                style="stop-color: rgb(140, 197, 252); stop-opacity: 1"
              />
              <stop
                offset="100%"
                style="stop-color: rgb(213, 168, 251); stop-opacity: 1"
              />
            </linearGradient>
            <path
              style="
                stroke: none;
                stroke-width: 1;
                stroke-dasharray: none;
                stroke-linecap: butt;
                stroke-dashoffset: 0;
                stroke-linejoin: miter;
                stroke-miterlimit: 4;
                fill: url(#SVGID_SVGID_3__3);
                fill-rule: nonzero;
                opacity: 1;
              "
              transform=" translate(-34.55, -26.48)"
              d="M 47.4 20.4 L 43 21.5 C 42.3 21.7 42 22.6 42.6 23.2 L 43.5 24.099999999999998 L 37.7 29.9 C 37.300000000000004 30.299999999999997 36.7 30.299999999999997 36.300000000000004 29.9 L 30.600000000000005 24.7 C 29.400000000000006 23.599999999999998 27.500000000000004 23.7 26.400000000000006 24.8 L 20.300000000000004 31.200000000000003 L 21.800000000000004 32.6 L 27.900000000000006 26.200000000000003 C 28.300000000000004 25.800000000000004 28.900000000000006 25.800000000000004 29.300000000000004 26.200000000000003 L 35.00000000000001 31.400000000000002 C 36.20000000000001 32.5 38.00000000000001 32.400000000000006 39.20000000000001 31.3 L 45.00000000000001 25.5 L 45.900000000000006 26.4 C 46.400000000000006 26.9 47.400000000000006 26.7 47.60000000000001 26 L 48.80000000000001 21.6 C 48.8 20.9 48.1 20.2 47.4 20.4 z"
              stroke-linecap="round"
            />
          </g>
        </g>
      </svg>