 <svg
   
        viewBox="0 0 24 24"
        xmlns="http://www.w3.org/2000/svg"
        xmlns:xlink="http://www.w3.org/1999/xlink"
      >
        <rect
          width="24"
          height="24"
          stroke="none"
          fill="#000000"
          opacity="0"
        />

        <g transform="matrix(0.31 0 0 0.31 12 12)">
          <g transform="matrix(1 0 0 1 0 0)">
            <linearGradient
              id="SVGID_fxbNZYRZE2dEDA6EAjTEca_1"
              gradientUnits="userSpaceOnUse"
              gradientTransform="matrix(1 0 0 -1 0 822)"
              x1="32"
              y1="807.083"
              x2="32"
              y2="772.742"
            >
              <stop
                offset="0%"
                style="stop-color: rgb(109, 199, 255); stop-opacity: 1"
              />
              <stop
                offset="100%"
                style="stop-color: rgb(230, 171, 255); stop-opacity: 1"
              />
            </linearGradient>
            <path
              style="
                stroke: none;
                stroke-width: 1;
                stroke-dasharray: none;
                stroke-linecap: butt;
                stroke-dashoffset: 0;
                stroke-linejoin: miter;
                stroke-miterlimit: 4;
                fill: url(#SVGID_fxbNZYRZE2dEDA6EAjTEca_1);
                fill-rule: nonzero;
                opacity: 1;
              "
              transform=" translate(-32, -32)"
              d="M 32 49 C 22.625999999999998 49 15 41.374 15 32 C 15 22.625999999999998 22.626 15 32 15 C 41.373999999999995 15 49 22.626 49 32 C 49 41.373999999999995 41.374 49 32 49 z M 32 17 C 23.729 17 17 23.729 17 32 C 17 40.271 23.729 47 32 47 C 40.271 47 47 40.271 47 32 C 47 23.729 40.271 17 32 17 z"
              stroke-linecap="round"
            />
          </g>
          <g transform="matrix(1 0 0 1 0 0)">
            <linearGradient
              id="SVGID_fxbNZYRZE2dEDA6EAjTEcb_2"
              gradientUnits="userSpaceOnUse"
              gradientTransform="matrix(1 0 0 1 0 0)"
              x1="32"
              y1="4.75"
              x2="32"
              y2="60.5"
            >
              <stop
                offset="0%"
                style="stop-color: rgb(26, 109, 255); stop-opacity: 1"
              />
              <stop
                offset="100%"
                style="stop-color: rgb(200, 34, 255); stop-opacity: 1"
              />
            </linearGradient>
            <path
              style="
                stroke: none;
                stroke-width: 1;
                stroke-dasharray: none;
                stroke-linecap: butt;
                stroke-dashoffset: 0;
                stroke-linejoin: miter;
                stroke-miterlimit: 4;
                fill: url(#SVGID_fxbNZYRZE2dEDA6EAjTEcb_2);
                fill-rule: nonzero;
                opacity: 1;
              "
              transform=" translate(-32, -32)"
              d="M 25.605 26 L 24.395 26 C 23.375 26 22.52 26.765 22.405 27.775 L 21 38 L 23.017 38 L 23.431 35 L 26.573 35 L 26.987000000000002 38 L 29 38 L 27.59 27.775 C 27.48 26.765 26.625 26 25.605 26 z M 23.706 33 L 24.395 28 L 25.605 28 L 26.295 33 L 23.706 33 z M 58.955 30.421 C 58.85 28.785 57.646 27.459 56.034 27.198999999999998 C 55.119 27.043999999999997 54.028 26.866999999999997 53.128 26.720999999999997 L 52.917 26.686999999999998 C 52.353 26.595999999999997 51.896 26.200999999999997 51.725 25.656 C 51.395 24.601 50.963 23.552 50.440000000000005 22.531 C 50.17700000000001 22.026999999999997 50.220000000000006 21.427999999999997 50.55800000000001 20.959999999999997 C 51.102000000000004 20.189999999999998 51.80700000000001 19.214999999999996 52.39000000000001 18.406999999999996 C 53.35200000000001 17.073999999999998 53.266000000000005 15.280999999999997 52.172000000000004 14.036999999999995 C 51.458000000000006 13.245999999999995 50.71 12.502999999999995 49.946000000000005 11.822999999999995 C 48.71300000000001 10.738999999999995 46.92400000000001 10.652999999999995 45.601000000000006 11.609999999999996 C 44.785000000000004 12.190999999999995 43.80400000000001 12.897999999999996 43.035000000000004 13.452999999999996 C 42.573 13.787999999999997 41.969 13.830999999999996 41.463 13.565999999999995 C 40.482 13.053999999999995 39.435 12.616999999999996 38.345 12.265999999999995 C 37.803 12.095999999999995 37.41 11.641999999999994 37.318 11.071999999999996 C 37.159 10.141999999999996 36.967 8.954999999999995 36.808 7.971999999999996 C 36.545 6.348999999999996 35.217 5.141999999999996 33.563 5.035999999999996 C 32.5 4.981999999999996 31.445000000000004 4.984999999999996 30.423000000000002 5.043999999999996 C 28.787000000000003 5.1489999999999965 27.461000000000002 6.352999999999996 27.201 7.964999999999996 C 27.046 8.879999999999995 26.869 9.970999999999997 26.723 10.870999999999997 L 26.689 11.081999999999997 C 26.598 11.645999999999997 26.203 12.102999999999998 25.658 12.273999999999997 C 24.603 12.603999999999997 23.554000000000002 13.035999999999998 22.533 13.558999999999997 C 22.029 13.823999999999998 21.431 13.778999999999998 20.962 13.440999999999997 C 20.192 12.896999999999997 19.217 12.191999999999997 18.409 11.608999999999996 C 17.075 10.645999999999997 15.283 10.732999999999997 14.038999999999998 11.826999999999996 C 13.247999999999998 12.540999999999997 12.504999999999997 13.288999999999996 11.824999999999998 14.052999999999997 C 10.741999999999997 15.284999999999997 10.655999999999997 17.073999999999998 11.611999999999998 18.397999999999996 C 12.192999999999998 19.213999999999995 12.899999999999999 20.194999999999997 13.454999999999998 20.963999999999995 C 13.79 21.426999999999996 13.832999999999998 22.029999999999994 13.567999999999998 22.535999999999994 C 13.055999999999997 23.516999999999996 12.618999999999998 24.563999999999993 12.267999999999997 25.653999999999993 C 12.097999999999997 26.195999999999994 11.643999999999997 26.58899999999999 11.073999999999998 26.680999999999994 C 10.143999999999998 26.839999999999993 8.956999999999997 27.031999999999993 7.972999999999998 27.190999999999995 C 6.349999999999998 27.453999999999997 5.142999999999998 28.781999999999996 5.036999999999998 30.435999999999996 C 4.982999999999998 31.499999999999996 4.9849999999999985 32.553999999999995 5.044999999999998 33.57599999999999 C 5.149999999999999 35.211999999999996 6.353999999999998 36.538 7.9659999999999975 36.797999999999995 C 8.880999999999997 36.952999999999996 9.971999999999998 37.129999999999995 10.871999999999998 37.275999999999996 L 11.082999999999998 37.309999999999995 C 11.646999999999998 37.400999999999996 12.104 37.79599999999999 12.274999999999999 38.340999999999994 C 12.604999999999999 39.395999999999994 13.036999999999999 40.44499999999999 13.559999999999999 41.465999999999994 C 13.822999999999999 41.96999999999999 13.78 42.568999999999996 13.441999999999998 43.03699999999999 C 12.897999999999998 43.806999999999995 12.192999999999998 44.78199999999999 11.609999999999998 45.58999999999999 C 10.647999999999998 46.92299999999999 10.733999999999998 48.71599999999999 11.827999999999998 49.95999999999999 C 12.541999999999998 50.75099999999998 13.289999999999997 51.493999999999986 14.053999999999998 52.173999999999985 C 15.285999999999998 53.255999999999986 17.075 53.341999999999985 18.398999999999997 52.386999999999986 C 19.214999999999996 51.80599999999998 20.195999999999998 51.09899999999999 20.964999999999996 50.54399999999998 C 21.427999999999997 50.20899999999998 22.029999999999998 50.16599999999998 22.536999999999995 50.43099999999998 C 23.517999999999997 50.942999999999984 24.564999999999994 51.37999999999998 25.654999999999994 51.73099999999998 C 26.196999999999996 51.90099999999998 26.589999999999993 52.35499999999998 26.681999999999995 52.92499999999998 C 26.840999999999994 53.85499999999998 27.032999999999994 55.04199999999998 27.191999999999997 56.02599999999998 C 27.455 57.64899999999998 28.782999999999998 58.85599999999998 30.436999999999998 58.96199999999998 C 30.941999999999997 58.987999999999985 31.444 59.00099999999998 31.942999999999998 59.00099999999998 C 32.495 59.00099999999998 33.04 58.984999999999985 33.577 58.95299999999998 C 35.213 58.847999999999985 36.539 57.643999999999984 36.799 56.03199999999998 C 36.954 55.11699999999998 37.131 54.02599999999998 37.277 53.12599999999998 L 37.311 52.914999999999985 C 37.402 52.350999999999985 37.797 51.893999999999984 38.342 51.722999999999985 C 39.397 51.39299999999999 40.446 50.960999999999984 41.467 50.43799999999999 C 41.972 50.173999999999985 42.57 50.21899999999999 43.038 50.55599999999999 C 43.808 51.09999999999999 44.782999999999994 51.80499999999999 45.590999999999994 52.38799999999999 C 46.925 53.349999999999994 48.715999999999994 53.26299999999999 49.96099999999999 52.16999999999999 C 50.75199999999999 51.45599999999999 51.49499999999999 50.707999999999984 52.17499999999999 49.94399999999999 C 53.25799999999999 48.71199999999999 53.34399999999999 46.92299999999999 52.38799999999999 45.59899999999999 C 51.80699999999999 44.78299999999999 51.099999999999994 43.80199999999999 50.54499999999999 43.03299999999999 C 50.20999999999999 42.569999999999986 50.16699999999999 41.966999999999985 50.43199999999999 41.460999999999984 C 50.94399999999999 40.47999999999998 51.380999999999986 39.432999999999986 51.731999999999985 38.34299999999998 C 51.90199999999999 37.80099999999998 52.35599999999999 37.40799999999998 52.92599999999999 37.31599999999998 C 53.85599999999999 37.15699999999998 55.042999999999985 36.96499999999998 56.02699999999999 36.80599999999998 C 57.649999999999984 36.542999999999985 58.856999999999985 35.21499999999998 58.96299999999999 33.560999999999986 C 59.017 32.497 59.015 31.443 58.955 30.421 z M 56.967 33.45 C 56.922 34.152 56.403999999999996 34.722 55.708999999999996 34.834 C 54.72 34.993 53.525 35.186 52.599 35.345000000000006 C 51.285999999999994 35.55800000000001 50.224 36.47800000000001 49.827999999999996 37.74000000000001 C 49.513999999999996 38.71600000000001 49.120999999999995 39.65700000000001 48.660999999999994 40.537000000000006 C 48.04299999999999 41.71900000000001 48.14399999999999 43.12500000000001 48.92399999999999 44.206 C 49.47699999999999 44.971000000000004 50.18099999999999 45.948 50.76299999999999 46.766000000000005 C 51.17399999999999 47.333000000000006 51.13699999999999 48.098000000000006 50.67799999999999 48.620000000000005 C 50.04999999999999 49.32600000000001 49.35799999999999 50.02100000000001 48.63099999999999 50.678000000000004 C 48.102999999999994 51.14300000000001 47.334999999999994 51.179 46.76299999999999 50.76800000000001 C 45.94999999999999 50.181000000000004 44.968999999999994 49.473000000000006 44.20199999999999 48.931000000000004 C 43.12299999999999 48.153000000000006 41.71999999999999 48.05200000000001 40.54799999999999 48.664 C 39.63499999999999 49.132000000000005 38.691999999999986 49.52 37.74499999999999 49.816 C 36.47199999999999 50.215 35.54999999999999 51.281000000000006 35.33699999999999 52.596000000000004 L 35.30299999999999 52.807 C 35.15799999999999 53.702000000000005 34.98199999999999 54.789 34.82699999999999 55.706 C 34.71499999999999 56.398 34.14799999999999 56.913000000000004 33.45499999999999 56.957 C 32.51099999999999 57.012 31.53099999999999 57.015 30.551999999999992 56.965 C 29.849999999999994 56.92 29.279999999999994 56.402 29.167999999999992 55.707 C 29.008999999999993 54.718 28.815999999999992 53.523 28.656999999999993 52.597 C 28.443999999999992 51.284 27.523999999999994 50.222 26.261999999999993 49.826 C 25.285999999999994 49.512 24.34499999999999 49.119 23.464999999999993 48.659 C 22.949999999999992 48.391 22.39399999999999 48.257999999999996 21.839999999999993 48.257999999999996 C 21.12099999999999 48.257999999999996 20.40599999999999 48.480999999999995 19.795999999999992 48.922 C 19.03099999999999 49.474999999999994 18.05399999999999 50.178999999999995 17.235999999999994 50.760999999999996 C 16.668999999999993 51.172999999999995 15.903999999999993 51.13399999999999 15.381999999999994 50.675999999999995 C 14.675999999999995 50.047999999999995 13.980999999999995 49.355999999999995 13.323999999999995 48.629 C 12.858999999999995 48.101 12.821999999999994 47.332 13.233999999999995 46.760999999999996 C 13.820999999999994 45.94799999999999 14.528999999999995 44.967 15.070999999999994 44.199999999999996 C 15.849999999999994 43.120999999999995 15.950999999999995 41.717999999999996 15.337999999999994 40.54599999999999 C 14.869999999999994 39.632999999999996 14.481999999999994 38.68999999999999 14.185999999999995 37.742999999999995 C 13.786999999999995 36.46999999999999 12.720999999999995 35.547999999999995 11.405999999999995 35.334999999999994 L 11.194999999999995 35.300999999999995 C 10.299999999999995 35.15599999999999 9.212999999999996 34.98 8.295999999999996 34.824999999999996 C 7.603999999999996 34.712999999999994 7.088999999999996 34.145999999999994 7.044999999999996 33.452999999999996 C 6.989999999999997 32.50899999999999 6.987999999999996 31.527999999999995 7.036999999999996 30.549999999999997 C 7.081999999999996 29.848 7.599999999999996 29.278 8.294999999999996 29.165999999999997 C 9.283999999999997 29.006999999999998 10.478999999999996 28.813999999999997 11.404999999999996 28.654999999999998 C 12.717999999999996 28.441999999999997 13.779999999999996 27.522 14.175999999999995 26.259999999999998 C 14.489999999999995 25.284 14.882999999999996 24.342999999999996 15.342999999999995 23.462999999999997 C 15.960999999999995 22.281 15.859999999999994 20.874999999999996 15.079999999999995 19.793999999999997 C 14.526999999999994 19.028999999999996 13.822999999999995 18.051999999999996 13.240999999999994 17.233999999999998 C 12.829999999999995 16.666999999999998 12.866999999999994 15.901999999999997 13.325999999999995 15.379999999999999 C 13.953999999999995 14.674 14.645999999999995 13.979 15.372999999999996 13.322 C 15.901999999999996 12.857 16.668999999999997 12.819999999999999 17.240999999999996 13.232 C 18.053999999999995 13.818999999999999 19.034999999999997 14.527 19.801999999999996 15.068999999999999 C 20.879999999999995 15.847999999999999 22.283999999999995 15.949 23.455999999999996 15.335999999999999 C 24.368999999999996 14.867999999999999 25.311999999999998 14.479999999999999 26.258999999999997 14.184 C 27.531999999999996 13.785 28.453999999999997 12.719 28.666999999999998 11.404 L 28.700999999999997 11.193 C 28.845999999999997 10.298 29.022 9.211 29.176999999999996 8.294 C 29.288999999999994 7.602 29.855999999999995 7.087000000000001 30.548999999999996 7.043000000000001 C 31.491999999999997 6.988000000000001 32.473 6.986000000000001 33.452 7.035000000000001 C 34.153999999999996 7.080000000000001 34.724 7.598000000000001 34.836 8.293000000000001 C 34.995 9.282000000000002 35.187999999999995 10.477 35.347 11.403 C 35.56 12.716000000000001 36.480000000000004 13.778 37.742000000000004 14.174 C 38.718 14.488 39.659000000000006 14.881 40.539 15.341 C 41.72 15.957999999999998 43.126000000000005 15.857 44.208 15.078 C 44.973 14.524999999999999 45.949999999999996 13.821 46.768 13.238999999999999 C 47.336 12.828 48.101 12.866 48.622 13.324 C 49.328 13.952 50.023 14.644 50.68 15.371 C 51.145 15.899000000000001 51.182 16.668 50.77 17.239 C 50.183 18.052 49.475 19.033 48.933 19.8 C 48.153999999999996 20.879 48.053 22.282 48.666 23.454 C 49.134 24.367 49.522 25.310000000000002 49.818 26.257 C 50.217 27.53 51.283 28.452 52.598 28.665000000000003 L 52.809 28.699 C 53.704 28.844 54.791 29.020000000000003 55.708 29.175 C 56.4 29.287 56.915 29.854 56.958999999999996 30.547 C 57.014 31.491 57.016 32.472 56.967 33.45 z M 36 26 L 31 26 L 31 38 L 33 38 L 33 34 L 36 34 C 37.655 34 39 32.655 39 31 L 39 29 C 39 27.345 37.655 26 36 26 z M 37 31 C 37 31.55 36.55 32 36 32 L 33 32 L 33 28 L 36 28 C 36.55 28 37 28.45 37 29 L 37 31 z M 41 38 L 43 38 L 43 26 L 41 26 L 41 38 z"
              stroke-linecap="round"
            />
          </g>
        </g>
      </svg>
